<?xml version="1.0" encoding="us-ascii" standalone="no"?><svg xmlns="http://www.w3.org/2000/svg" xmlns:xlink="http://www.w3.org/1999/xlink" contentStyleType="text/css" height="393px" preserveAspectRatio="none" style="width:241px;height:393px;background:#FFFFFF;" version="1.1" viewBox="0 0 241 393" width="241px" zoomAndPan="magnify"><defs/><g><g id="employee_1"><rect fill="#F1F1F1" height="50" rx="12.5" ry="12.5" style="stroke:#181818;stroke-width:0.5;" width="97" x="93" y="7"/><line style="stroke:#181818;stroke-width:0.5;" x1="93" x2="190" y1="34.6094" y2="34.6094"/><text fill="#000000" font-family="sans-serif" font-size="14" lengthAdjust="spacing" textLength="77" x="103" y="26.5332">employee_1</text></g><g id="employee_2"><rect fill="#F1F1F1" height="50" rx="12.5" ry="12.5" style="stroke:#181818;stroke-width:0.5;" width="97" x="93" y="117"/><line style="stroke:#181818;stroke-width:0.5;" x1="93" x2="190" y1="144.6094" y2="144.6094"/><text fill="#000000" font-family="sans-serif" font-size="14" lengthAdjust="spacing" textLength="77" x="103" y="136.5332">employee_2</text></g><g id="employee_3"><rect fill="#F1F1F1" height="50" rx="12.5" ry="12.5" style="stroke:#181818;stroke-width:0.5;" width="97" x="7" y="227"/><line style="stroke:#181818;stroke-width:0.5;" x1="7" x2="104" y1="254.6094" y2="254.6094"/><text fill="#000000" font-family="sans-serif" font-size="14" lengthAdjust="spacing" textLength="77" x="17" y="246.5332">employee_3</text></g><g id="employee_4"><rect fill="#F1F1F1" height="50" rx="12.5" ry="12.5" style="stroke:#181818;stroke-width:0.5;" width="97" x="109" y="337"/><line style="stroke:#181818;stroke-width:0.5;" x1="109" x2="206" y1="364.6094" y2="364.6094"/><text fill="#000000" font-family="sans-serif" font-size="14" lengthAdjust="spacing" textLength="77" x="119" y="356.5332">employee_4</text></g><!--link employee_1 to employee_2--><g id="link_employee_1_employee_2"><path d="M141.5,57.24 C141.5,75.02 141.5,93.08 141.5,110.84 " fill="none" id="employee_1-to-employee_2" style="stroke:#181818;stroke-width:1.0;"/><polygon fill="#181818" points="141.5,116.84,145.5,107.84,141.5,111.84,137.5,107.84,141.5,116.84" style="stroke:#181818;stroke-width:1.0;"/></g><!--link employee_1 to employee_3--><g id="link_employee_1_employee_3"><path d="M116.87,57.21 C102.44,72.89 85.19,94.52 75.5,117 C59.95,153.07 56.3427,193.1022 55.5927,220.7522 " fill="none" id="employee_1-to-employee_3" style="stroke:#181818;stroke-width:1.0;"/><polygon fill="#181818" points="55.43,226.75,59.6726,217.8618,55.5656,221.7518,51.6755,217.6448,55.43,226.75" style="stroke:#181818;stroke-width:1.0;"/></g><!--link employee_1 to employee_4--><g id="link_employee_1_employee_4"><path d="M167.66,57.1 C182.46,72.58 199.56,94.04 207.5,117 C234.5,195.05 196.1032,287.1136 173.4732,331.5436 " fill="none" id="employee_1-to-employee_4" style="stroke:#181818;stroke-width:1.0;"/><polygon fill="#181818" points="170.75,336.89,178.399,330.6858,173.0193,332.4346,171.2704,327.0549,170.75,336.89" style="stroke:#181818;stroke-width:1.0;"/></g><!--link employee_2 to employee_3--><g id="link_employee_2_employee_3"><path d="M122.2,167.24 C108.04,185.02 92.6172,204.386 78.4772,222.146 " fill="none" id="employee_2-to-employee_3" style="stroke:#181818;stroke-width:1.0;"/><polygon fill="#181818" points="74.74,226.84,83.4751,222.2905,77.8543,222.9284,77.2165,217.3076,74.74,226.84" style="stroke:#181818;stroke-width:1.0;"/></g><!--link employee_2 to employee_4--><g id="link_employee_2_employee_4"><path d="M143.27,167.16 C146.35,209.07 152.201,288.7661 155.281,330.7461 " fill="none" id="employee_2-to-employee_4" style="stroke:#181818;stroke-width:1.0;"/><polygon fill="#181818" points="155.72,336.73,159.0507,327.4614,155.3541,331.7434,151.0722,328.0468,155.72,336.73" style="stroke:#181818;stroke-width:1.0;"/></g><!--link employee_3 to employee_4--><g id="link_employee_3_employee_4"><path d="M78.39,277.24 C95.19,295.02 113.7781,314.72 130.5681,332.48 " fill="none" id="employee_3-to-employee_4" style="stroke:#181818;stroke-width:1.0;"/><polygon fill="#181818" points="134.69,336.84,131.4138,327.552,131.2551,333.2066,125.6005,333.0479,134.69,336.84" style="stroke:#181818;stroke-width:1.0;"/></g><!--SRC=[Aov9B4bLICqjoCclJ4sDDrIevghbGkBgwjeXP8rmoXZZb351o1ZXr6E4KuynkWm0]--></g></svg>