<?xml version="1.0" encoding="us-ascii" standalone="no"?><svg xmlns="http://www.w3.org/2000/svg" xmlns:xlink="http://www.w3.org/1999/xlink" contentStyleType="text/css" height="1142px" preserveAspectRatio="none" style="width:261px;height:1142px;background:#FFFFFF;" version="1.1" viewBox="0 0 261 1142" width="261px" zoomAndPan="magnify"><defs/><g><path d="M19.5,86 L235,86 A12.5,12.5 0 0 1 247.5,98.5 L247.5,113.6094 L7,113.6094 L7,98.5 A12.5,12.5 0 0 1 19.5,86 " fill="#F1F1F1" style="stroke:#F1F1F1;stroke-width:1.0;"/><rect fill="none" height="411.6094" rx="12.5" ry="12.5" style="stroke:#181818;stroke-width:0.5;" width="240.5" x="7" y="86"/><line style="stroke:#181818;stroke-width:0.5;" x1="7" x2="247.5" y1="113.6094" y2="113.6094"/><text fill="#000000" font-family="sans-serif" font-size="14" lengthAdjust="spacing" textLength="48" x="103.25" y="105.5332">week_1</text><g id="week_1.e11"><rect fill="#F1F1F1" height="50" rx="12.5" ry="12.5" style="stroke:#181818;stroke-width:0.5;" width="93" x="102" y="125.6094"/><line style="stroke:#181818;stroke-width:0.5;" x1="102" x2="195" y1="153.2188" y2="153.2188"/><text fill="#000000" font-family="sans-serif" font-size="14" lengthAdjust="spacing" textLength="73" x="112" y="145.1426">employee 1</text></g><g id="week_1.e12"><rect fill="#F1F1F1" height="50" rx="12.5" ry="12.5" style="stroke:#181818;stroke-width:0.5;" width="93" x="19" y="229.6094"/><line style="stroke:#181818;stroke-width:0.5;" x1="19" x2="112" y1="257.2188" y2="257.2188"/><text fill="#000000" font-family="sans-serif" font-size="14" lengthAdjust="spacing" textLength="73" x="29" y="249.1426">employee 2</text></g><g id="week_1.e13"><rect fill="#F1F1F1" height="50" rx="12.5" ry="12.5" style="stroke:#181818;stroke-width:0.5;" width="93" x="96" y="333.6094"/><line style="stroke:#181818;stroke-width:0.5;" x1="96" x2="189" y1="361.2188" y2="361.2188"/><text fill="#000000" font-family="sans-serif" font-size="14" lengthAdjust="spacing" textLength="73" x="106" y="353.1426">employee 3</text></g><g id="week_1.e14"><rect fill="#F1F1F1" height="50" rx="12.5" ry="12.5" style="stroke:#181818;stroke-width:0.5;" width="93" x="96" y="437.6094"/><line style="stroke:#181818;stroke-width:0.5;" x1="96" x2="189" y1="465.2188" y2="465.2188"/><text fill="#000000" font-family="sans-serif" font-size="14" lengthAdjust="spacing" textLength="73" x="106" y="457.1426">employee 4</text></g><!--link e11 to e12--><g id="link_e11_e12"><path d="M115.17,175.8394 C108.88,181.2694 102.66,187.3094 97.5,193.6094 C88.68,204.3894 83.7789,212.5666 78.2689,224.0866 " fill="none" id="e11-to-e12" style="stroke:#181818;stroke-width:1.0;"/><polygon fill="#181818" points="75.68,229.4994,83.1718,223.1062,77.8374,224.9888,75.9549,219.6544,75.68,229.4994" style="stroke:#181818;stroke-width:1.0;"/><text fill="#000000" font-family="sans-serif" font-size="13" lengthAdjust="spacing" textLength="35" x="98.5" y="208.1045">select</text></g><!--link e11 to e13--><g id="link_e11_e13"><path d="M147.8,175.6394 C146.65,215.2294 144.5352,287.7119 143.3752,327.4119 " fill="none" id="e11-to-e13" style="stroke:#181818;stroke-width:1.0;"/><polygon fill="#181818" points="143.2,333.4094,147.4612,324.53,143.346,328.4115,139.4646,324.2964,143.2,333.4094" style="stroke:#181818;stroke-width:1.0;"/><text fill="#000000" font-family="sans-serif" font-size="13" lengthAdjust="spacing" textLength="32" x="147.5" y="260.1045">reject</text></g><!--link e11 to e14--><g id="link_e11_e14"><path d="M161.96,175.8194 C169.74,190.8594 179.04,210.8494 184.5,229.6094 C203.7,295.5994 211.98,316.2194 198.5,383.6094 C195.1,400.6094 193.06,405.1494 183.5,419.6094 C179.45,425.7294 178.5442,427.3527 173.4242,432.8127 " fill="none" id="e11-to-e14" style="stroke:#181818;stroke-width:1.0;"/><polygon fill="#181818" points="169.32,437.1894,178.3941,433.3604,172.7402,433.5421,172.5585,427.8882,169.32,437.1894" style="stroke:#181818;stroke-width:1.0;"/><text fill="#000000" font-family="sans-serif" font-size="13" lengthAdjust="spacing" textLength="32" x="205.5" y="312.1045">reject</text></g><!--link e12 to e13--><g id="link_e12_e13"><path d="M77.79,279.8794 C83.97,291.1694 91.96,304.5294 100.5,315.6094 C105.16,321.6494 106.4378,323.4168 111.8678,328.9768 " fill="none" id="e12-to-e13" style="stroke:#181818;stroke-width:1.0;"/><polygon fill="#181818" points="116.06,333.2694,112.6334,324.0358,112.5665,329.6923,106.9101,329.6254,116.06,333.2694" style="stroke:#181818;stroke-width:1.0;"/><text fill="#000000" font-family="sans-serif" font-size="13" lengthAdjust="spacing" textLength="32" x="101.5" y="312.1045">reject</text></g><!--link e12 to e14--><g id="link_e12_e14"><path d="M55.94,279.9194 C47.02,306.5994 37.19,350.0794 52.5,383.6094 C62.63,405.7994 77.6753,420.6112 96.1953,433.9012 " fill="none" id="e12-to-e14" style="stroke:#181818;stroke-width:1.0;"/><polygon fill="#181818" points="101.07,437.3994,96.09,428.9024,97.0077,434.4843,91.4258,435.402,101.07,437.3994" style="stroke:#181818;stroke-width:1.0;"/><text fill="#000000" font-family="sans-serif" font-size="13" lengthAdjust="spacing" textLength="32" x="53.5" y="364.1045">reject</text></g><!--link e13 to e14--><g id="link_e13_e14"><path d="M142.5,383.7794 C142.5,399.9194 142.5,415.0794 142.5,431.2594 " fill="none" id="e13-to-e14" style="stroke:#181818;stroke-width:1.0;"/><polygon fill="#181818" points="142.5,437.2594,146.5,428.2594,142.5,432.2594,138.5,428.2594,142.5,437.2594" style="stroke:#181818;stroke-width:1.0;"/><text fill="#000000" font-family="sans-serif" font-size="13" lengthAdjust="spacing" textLength="35" x="143.5" y="416.1045">select</text></g><path d="M19.5,558 L235.5,558 A12.5,12.5 0 0 1 248,570.5 L248,585.6094 L7,585.6094 L7,570.5 A12.5,12.5 0 0 1 19.5,558 " fill="#F1F1F1" style="stroke:#F1F1F1;stroke-width:1.0;"/><rect fill="none" height="203.6094" rx="12.5" ry="12.5" style="stroke:#181818;stroke-width:0.5;" width="241" x="7" y="558"/><line style="stroke:#181818;stroke-width:0.5;" x1="7" x2="248" y1="585.6094" y2="585.6094"/><text fill="#000000" font-family="sans-serif" font-size="14" lengthAdjust="spacing" textLength="48" x="103.5" y="577.5332">week_2</text><g id="week_2.e21"><rect fill="#F1F1F1" height="50" rx="12.5" ry="12.5" style="stroke:#181818;stroke-width:0.5;" width="93" x="19" y="597.6094"/><line style="stroke:#181818;stroke-width:0.5;" x1="19" x2="112" y1="625.2188" y2="625.2188"/><text fill="#000000" font-family="sans-serif" font-size="14" lengthAdjust="spacing" textLength="73" x="29" y="617.1426">employee 1</text></g><g id="week_2.e22"><rect fill="#F1F1F1" height="50" rx="12.5" ry="12.5" style="stroke:#181818;stroke-width:0.5;" width="93" x="133" y="597.6094"/><line style="stroke:#181818;stroke-width:0.5;" x1="133" x2="226" y1="625.2188" y2="625.2188"/><text fill="#000000" font-family="sans-serif" font-size="14" lengthAdjust="spacing" textLength="73" x="143" y="617.1426">employee 2</text></g><g id="week_2.e23"><rect fill="#F1F1F1" height="50" rx="12.5" ry="12.5" style="stroke:#181818;stroke-width:0.5;" width="93" x="19" y="701.6094"/><line style="stroke:#181818;stroke-width:0.5;" x1="19" x2="112" y1="729.2188" y2="729.2188"/><text fill="#000000" font-family="sans-serif" font-size="14" lengthAdjust="spacing" textLength="73" x="29" y="721.1426">employee 3</text></g><g id="week_2.e24"><rect fill="#F1F1F1" height="50" rx="12.5" ry="12.5" style="stroke:#181818;stroke-width:0.5;" width="93" x="146" y="701.6094"/><line style="stroke:#181818;stroke-width:0.5;" x1="146" x2="239" y1="729.2188" y2="729.2188"/><text fill="#000000" font-family="sans-serif" font-size="14" lengthAdjust="spacing" textLength="73" x="156" y="721.1426">employee 4</text></g><!--link e21 to e23--><g id="link_e21_e23"><path d="M43.73,647.6994 C36.67,658.3794 31.55,671.2994 35.5,683.6094 C37.47,689.7494 37.376,690.7643 41.016,696.2343 " fill="none" id="e21-to-e23" style="stroke:#181818;stroke-width:1.0;"/><polygon fill="#181818" points="44.34,701.2294,42.6841,691.5207,41.57,697.0668,36.0239,695.9527,44.34,701.2294" style="stroke:#181818;stroke-width:1.0;"/><text fill="#000000" font-family="sans-serif" font-size="13" lengthAdjust="spacing" textLength="35" x="36.5" y="680.1045">select</text></g><!--link e21 to e24--><g id="link_e21_e24"><path d="M71.3,647.7294 C75.27,659.8094 81.63,673.8894 91.5,683.6094 C99.82,691.8094 117.828,699.7503 140.148,707.9503 " fill="none" id="e21-to-e24" style="stroke:#181818;stroke-width:1.0;"/><polygon fill="#181818" points="145.78,710.0194,138.7115,703.1611,141.0867,708.2951,135.9527,710.6704,145.78,710.0194" style="stroke:#181818;stroke-width:1.0;"/><text fill="#000000" font-family="sans-serif" font-size="13" lengthAdjust="spacing" textLength="32" x="92.5" y="680.1045">reject</text></g><!--link e22 to e23--><g id="link_e22_e23"><path d="M161.99,647.8294 C153,659.3794 141.44,672.9594 129.5,683.6094 C122.36,689.9794 119.1328,692.7174 111.0528,698.2074 " fill="none" id="e22-to-e23" style="stroke:#181818;stroke-width:1.0;"/><polygon fill="#181818" points="106.09,701.5794,115.7822,699.8299,110.2257,698.7694,111.2862,693.2128,106.09,701.5794" style="stroke:#181818;stroke-width:1.0;"/><text fill="#000000" font-family="sans-serif" font-size="13" lengthAdjust="spacing" textLength="32" x="146.5" y="680.1045">reject</text></g><!--link e22 to e24--><g id="link_e22_e24"><path d="M183.84,647.9994 C184.79,653.7594 185.74,659.8894 186.5,665.6094 C188.06,677.3394 188.8476,684.4258 189.8776,695.3658 " fill="none" id="e22-to-e24" style="stroke:#181818;stroke-width:1.0;"/><polygon fill="#181818" points="190.44,701.3394,193.5788,692.0041,189.9713,696.3614,185.614,692.7539,190.44,701.3394" style="stroke:#181818;stroke-width:1.0;"/><text fill="#000000" font-family="sans-serif" font-size="13" lengthAdjust="spacing" textLength="35" x="188.5" y="680.1045">select</text></g><path d="M27.5,822 L227.5,822 A12.5,12.5 0 0 1 240,834.5 L240,849.6094 L15,849.6094 L15,834.5 A12.5,12.5 0 0 1 27.5,822 " fill="#F1F1F1" style="stroke:#F1F1F1;stroke-width:1.0;"/><rect fill="none" height="203.6094" rx="12.5" ry="12.5" style="stroke:#181818;stroke-width:0.5;" width="225" x="15" y="822"/><line style="stroke:#181818;stroke-width:0.5;" x1="15" x2="240" y1="849.6094" y2="849.6094"/><text fill="#000000" font-family="sans-serif" font-size="14" lengthAdjust="spacing" textLength="48" x="103.5" y="841.5332">week_3</text><g id="week_3.e31"><rect fill="#F1F1F1" height="50" rx="12.5" ry="12.5" style="stroke:#181818;stroke-width:0.5;" width="93" x="27" y="861.6094"/><line style="stroke:#181818;stroke-width:0.5;" x1="27" x2="120" y1="889.2188" y2="889.2188"/><text fill="#000000" font-family="sans-serif" font-size="14" lengthAdjust="spacing" textLength="73" x="37" y="881.1426">employee 1</text></g><g id="week_3.e32"><rect fill="#F1F1F1" height="50" rx="12.5" ry="12.5" style="stroke:#181818;stroke-width:0.5;" width="93" x="138" y="861.6094"/><line style="stroke:#181818;stroke-width:0.5;" x1="138" x2="231" y1="889.2188" y2="889.2188"/><text fill="#000000" font-family="sans-serif" font-size="14" lengthAdjust="spacing" textLength="73" x="148" y="881.1426">employee 2</text></g><g id="week_3.e33"><rect fill="#F1F1F1" height="50" rx="12.5" ry="12.5" style="stroke:#181818;stroke-width:0.5;" width="93" x="138" y="965.6094"/><line style="stroke:#181818;stroke-width:0.5;" x1="138" x2="231" y1="993.2188" y2="993.2188"/><text fill="#000000" font-family="sans-serif" font-size="14" lengthAdjust="spacing" textLength="73" x="148" y="985.1426">employee 3</text></g><g id="week_3.e34"><rect fill="#F1F1F1" height="50" rx="12.5" ry="12.5" style="stroke:#181818;stroke-width:0.5;" width="93" x="27" y="965.6094"/><line style="stroke:#181818;stroke-width:0.5;" x1="27" x2="120" y1="993.2188" y2="993.2188"/><text fill="#000000" font-family="sans-serif" font-size="14" lengthAdjust="spacing" textLength="73" x="37" y="985.1426">employee 4</text></g><!--link e31 to e34--><g id="link_e31_e34"><path d="M73.5,911.7794 C73.5,927.9194 73.5,943.0794 73.5,959.2594 " fill="none" id="e31-to-e34" style="stroke:#181818;stroke-width:1.0;"/><polygon fill="#181818" points="73.5,965.2594,77.5,956.2594,73.5,960.2594,69.5,956.2594,73.5,965.2594" style="stroke:#181818;stroke-width:1.0;"/><text fill="#000000" font-family="sans-serif" font-size="13" lengthAdjust="spacing" textLength="35" x="74.5" y="944.1045">select</text></g><!--link e32 to e33--><g id="link_e32_e33"><path d="M184.5,911.7794 C184.5,927.9194 184.5,943.0794 184.5,959.2594 " fill="none" id="e32-to-e33" style="stroke:#181818;stroke-width:1.0;"/><polygon fill="#181818" points="184.5,965.2594,188.5,956.2594,184.5,960.2594,180.5,956.2594,184.5,965.2594" style="stroke:#181818;stroke-width:1.0;"/><text fill="#000000" font-family="sans-serif" font-size="13" lengthAdjust="spacing" textLength="35" x="185.5" y="944.1045">select</text></g><ellipse cx="127.5" cy="16" fill="#222222" rx="10" ry="10" style="stroke:#222222;stroke-width:1.0;"/><g id="good"><rect fill="#F1F1F1" height="50" rx="12.5" ry="12.5" style="stroke:#181818;stroke-width:0.5;" width="52" x="101.5" y="1086"/><line style="stroke:#181818;stroke-width:0.5;" x1="101.5" x2="153.5" y1="1113.6094" y2="1113.6094"/><text fill="#000000" font-family="sans-serif" font-size="14" lengthAdjust="spacing" textLength="32" x="111.5" y="1105.5332">good</text></g><!--link *start* to week_1--><g id="link_*start*_week_1"><path d="M127.5,26.12 C127.5,37.77 127.5,53.63 127.5,79.98 " fill="none" id="*start*-to-week_1" style="stroke:#181818;stroke-width:1.0;"/><polygon fill="#181818" points="127.5,85.98,131.5,76.98,127.5,80.98,123.5,76.98,127.5,85.98" style="stroke:#181818;stroke-width:1.0;"/></g><!--link week_1 to week_2--><g id="link_week_1_week_2"><path d="M127.5,498.2 C127.5,518.76 127.5,532.93 127.5,551.67 " fill="none" id="week_1-to-week_2" style="stroke:#181818;stroke-width:1.0;"/><polygon fill="#181818" points="127.5,557.67,131.5,548.67,127.5,552.67,123.5,548.67,127.5,557.67" style="stroke:#181818;stroke-width:1.0;"/></g><!--link week_2 to week_3--><g id="link_week_2_week_3"><path d="M127.5,762.3 C127.5,781.88 127.5,796.4 127.5,815.97 " fill="none" id="week_2-to-week_3" style="stroke:#181818;stroke-width:1.0;"/><polygon fill="#181818" points="127.5,821.97,131.5,812.97,127.5,816.97,123.5,812.97,127.5,821.97" style="stroke:#181818;stroke-width:1.0;"/></g><!--link week_3 to good--><g id="link_week_3_good"><path d="M127.5,1026.16 C127.5,1048.43 127.5,1064.02 127.5,1079.72 " fill="none" id="week_3-to-good" style="stroke:#181818;stroke-width:1.0;"/><polygon fill="#181818" points="127.5,1085.72,131.5,1076.72,127.5,1080.72,123.5,1076.72,127.5,1085.72" style="stroke:#181818;stroke-width:1.0;"/></g><!--SRC=[VPBB2i8m44Nt-OgXIw6BpitAXJyY8aK7GIiLKn0H_zq-fWzYEjq4xc6Qd9k4fco4NYAtO_5nr7wXJpAvFwhwBK95HcKWAOeaPQMSf52A9FLAlUjnkmNb-Qxx6MqfI2Md9W9emLEk_y37WDScU6q22w2RVrsOws4o-s6p7pRxORCV7ljXjML4_KmWbc9UJ2J1cYriMvYsC6rXscAqXKh1HxRGimFBi-ytXpuUdh8RbZbXfvSu9N0gsYMNkZwx7m00]--></g></svg>